<?xml version="1.0" standalone="no"?>
<!DOCTYPE svg PUBLIC "-//W3C//DTD SVG 20010904//EN"
 "http://www.w3.org/TR/2001/REC-SVG-20010904/DTD/svg10.dtd">
<svg version="1.0" xmlns="http://www.w3.org/2000/svg"
 width="500.000000pt" height="500.000000pt" viewBox="0 0 500.000000 500.000000"
 preserveAspectRatio="xMidYMid meet">
<metadata>
Created by potrace 1.11, written by Peter Selinger 2001-2013
</metadata>
<g transform="translate(0.000000,500.000000) scale(0.100000,-0.100000)"
fill="#000000" stroke="none">
<path d="M2457 4935 c-1 -2 -54 -5 -117 -8 -63 -4 -126 -9 -140 -11 -14 -2
-43 -7 -65 -10 -22 -3 -65 -10 -95 -16 -30 -6 -66 -13 -80 -16 -45 -9 -103
-25 -196 -54 -770 -244 -1367 -852 -1603 -1634 -12 -38 -24 -82 -27 -99 -2
-17 -7 -33 -9 -37 -2 -4 -6 -20 -9 -36 -3 -16 -12 -69 -21 -119 -24 -134 -30
-220 -29 -425 1 -313 52 -581 164 -870 63 -160 209 -429 292 -535 115 -146
162 -200 267 -305 346 -344 769 -567 1261 -665 17 -3 91 -15 130 -20 169 -24
508 -24 637 -1 10 2 40 7 66 10 51 8 75 12 117 21 14 3 34 7 45 9 20 4 84 22
180 49 157 46 414 163 570 262 483 306 832 747 1016 1285 26 76 64 210 75 265
27 140 29 155 41 255 5 36 8 162 8 280 -1 187 -6 255 -30 405 -24 145 -83 352
-142 495 -127 309 -295 562 -533 801 -243 244 -452 386 -791 537 -130 58 -431
141 -570 158 -30 3 -76 10 -103 14 -27 4 -87 8 -135 10 -47 1 -105 3 -129 4
-23 2 -43 2 -45 1z"/>
</g>
</svg>
